# xmcd
#
# Track frame offsets:
#	150
#	16267
#	29726
#	46398
#	60298
#	76331
#	94380
#	112105
#	128075
#	145264
#	161607
#	180067
#	196964
#	215583
#	231610
#	247442
#	260512
#	276082
#	292492
#	309617
#	327952
#
# Disc length: 4594 seconds
#
# Revision: 0
# Processed by: cddbd v1.5.2PL0 Copyright (c) Steve Scherf et al.
# Submitted via: EasyCDDAExtractor 12.0.4.1
#
DISCID=4511f015
DTITLE=ERG Music - Nu Country Traxx Volume 190 CAN
DYEAR=2010
DGENRE=country
TTITLE0=Water - Brad Paisley 98BPM
TTITLE1=Undo It - Carrie Underwood 78BPM
TTITLE2=Watching You Walk Away - Shane Yellowbird 72BPM
TTITLE3=Crazy Town - Jason Aldean 91BPM
TTITLE4=Every Dog Has It's Day - Toby Keith 156BPM
TTITLE5=Guinevere - Eli Young Band 71BPM
TTITLE6=Get Off On The Pain - Gary Allan 84BPM
TTITLE7=Didn't Get A Damn Thing Done - Mike Gouchie 86BPM
TTITLE8=The House That Built Me - Miranda Lambert 81BPM
TTITLE9=Groovy Little Summer Song - James Otto 97BPM
TTITLE10=Nothing But Us - Aaron Pritchett 128BPM
TTITLE11=I Will Stand By You - High Valley 116BPM
TTITLE12=Way Out Here - Josh Thompson 74BPM
TTITLE13=The World Is Ours Tonight - Gloriana 72BPM
TTITLE14=Giddy On Up - Laura Bell Bundy 105BPM
TTITLE15=Little White Church - Little Big Town 214BPM
TTITLE16=Makin' Me Fall In Love Again - Kellie Pickler 78BPM
TTITLE17=Look Who's Back In Love - Jonathan Singleton and The Grove 94BPM
TTITLE18=Questions - Wyatt 78BPM
TTITLE19=Today Was A Fairytale - Taylor Swift 79BPM
TTITLE20=Saved By Grace - Brad Johner 81BPM
EXTD=
EXTT0=
EXTT1=
EXTT2=
EXTT3=
EXTT4=
EXTT5=
EXTT6=
EXTT7=
EXTT8=
EXTT9=
EXTT10=
EXTT11=
EXTT12=
EXTT13=
EXTT14=
EXTT15=
EXTT16=
EXTT17=
EXTT18=
EXTT19=
EXTT20=
PLAYORDER=
